<svg version="1.0" xmlns="http://www.w3.org/2000/svg" viewBox="0 0 3996.000000 836.000000" preserveAspectRatio="xMidYMid meet">
  <g transform="translate(0.000000,836.000000) scale(0.100000,-0.100000)" fill="#760574" stroke="none">
    <path d="M2721 7493 c-6 -21 -321 -1235 -700 -2697 l-690 -2659 37 -47 c20
-25 280 -342 576 -703 l539 -657 2129 0 c1170 0 2128 3 2128 6 0 3 57 312 126
687 69 374 126 688 126 696 1 9 -79 149 -177 311 -97 162 -180 301 -182 308
-4 9 43 12 213 12 l219 0 81 -144 80 -144 -24 -155 -25 -155 400 -709 399
-708 1052 -3 1051 -2 6 32 c3 18 32 233 65 478 34 245 63 460 66 478 l6 32
274 0 c151 0 274 1 275 3 0 1 6 40 12 87 l12 85 120 -285 c65 -157 174 -424
240 -595 l121 -310 2172 -3 2172 -2 1 32 c0 18 4 42 8 53 6 15 10 8 16 -32 l7
-53 4403 0 4403 0 7 53 c6 40 10 47 16 32 4 -11 8 -35 8 -52 l1 -33 2169 0
2168 0 33 78 c17 42 35 81 40 85 4 5 10 -24 14 -63 4 -40 10 -78 13 -86 4 -12
322 -14 2144 -14 l2139 0 61 95 c34 52 62 95 64 95 2 0 11 -43 21 -95 l18 -95
1860 2 1859 3 773 972 773 971 -560 2159 c-308 1187 -564 2175 -570 2195 l-10
38 -271 2 -272 3 -23 80 c-19 66 -22 105 -23 228 l0 147 -1873 0 -1874 0 -35
-76 c-20 -41 -38 -72 -41 -67 -2 4 -7 26 -11 48 -4 22 -9 52 -12 68 l-6 27
-2132 0 -2132 0 -25 -77 -24 -77 -7 40 c-3 21 -9 56 -13 77 l-6 37 -2149 0
-2148 0 -10 -27 -10 -28 -1 28 -1 27 -4345 0 -4345 0 -1 -27 -1 -28 -10 28
-10 27 -2149 0 c-1182 0 -2149 -1 -2150 -2 0 -2 -6 -37 -12 -78 l-12 -75 -24
78 -25 77 -1055 -2 -1056 -3 -3 -32 c-4 -41 -14 -42 -28 -5 l-11 29 -774 6
c-426 4 -901 7 -1055 7 l-282 0 -5 -22 c-3 -13 -9 -44 -12 -71 -4 -26 -11 -49
-15 -52 -4 -2 -22 29 -41 70 l-34 74 -2107 1 -2107 0 -10 -37z m4019 -285 c-1
-7 -42 -218 -93 -468 l-93 -455 -1090 -3 -1089 -2 -109 -468 c-60 -257 -112
-475 -114 -484 -4 -17 53 -18 1097 -18 889 0 1103 -2 1107 -13 2 -7 -40 -231
-94 -497 l-98 -485 -1121 -5 c-617 -3 -1125 -8 -1129 -12 -3 -4 -58 -225 -120
-490 -63 -266 -116 -493 -119 -505 l-5 -23 1135 0 c832 0 1135 -3 1135 -11 0
-11 -195 -979 -207 -1026 l-5 -23 -2024 0 c-1113 0 -2024 3 -2024 8 0 4 291
1129 647 2499 l648 2493 1883 0 c1499 0 1882 -3 1882 -12z m2094 -600 c-57
-337 -130 -767 -162 -956 l-58 -342 275 2 276 3 146 910 c81 501 150 929 154
953 l6 42 805 0 c687 0 804 -2 804 -14 0 -8 -88 -656 -195 -1440 -107 -784
-195 -1432 -195 -1441 0 -13 -35 -15 -280 -15 l-280 0 -5 -22 c-4 -21 -145
-993 -145 -1003 0 -3 -125 -5 -277 -5 -153 0 -283 -4 -290 -8 -7 -5 -42 -201
-87 -497 -42 -270 -78 -505 -81 -522 l-6 -33 -864 0 c-685 0 -865 3 -865 13 0
14 23 145 115 659 36 201 65 371 65 377 0 8 -85 11 -280 11 -154 0 -280 3
-280 7 0 8 177 967 185 1001 l5 22 -286 0 c-225 0 -285 3 -282 13 3 6 130 661
284 1454 l279 1443 811 0 811 0 -103 -612z m6586 580 c0 -18 -14 -220 -30
-448 -16 -228 -30 -425 -30 -437 l0 -23 -1090 0 c-599 0 -1090 -2 -1090 -4 0
-11 -91 -888 -95 -923 l-6 -43 1105 0 1106 0 0 -66 c0 -86 -59 -914 -66 -925
-3 -5 -506 -9 -1118 -9 -879 0 -1116 -3 -1123 -12 -5 -7 -31 -224 -57 -483
-26 -258 -50 -485 -53 -502 l-5 -33 1136 0 1136 0 0 -45 c0 -46 -55 -842 -65
-952 l-7 -63 -2024 0 c-1612 0 -2024 3 -2024 13 0 19 631 4960 635 4975 4 9
389 12 1885 12 l1880 0 0 -32z m4340 -923 l0 -955 -274 0 -274 0 -6 -22 c-3
-13 -6 -125 -6 -250 l0 -228 275 0 c213 0 275 -3 275 -12 3 -123 -2 -1555 -7
-1990 l-6 -588 -864 0 -863 0 0 61 c0 83 48 1740 55 1902 l5 127 -279 0 -279
0 -6 -122 c-3 -68 -20 -501 -36 -963 -17 -462 -33 -877 -36 -922 l-6 -83 -869
0 c-688 0 -869 3 -869 13 -1 30 302 4944 306 4965 l4 22 1880 0 1880 0 0 -955z
m4354 933 c4 -20 57 -870 56 -905 0 -10 -224 -13 -1084 -13 -597 0 -1087 -3
-1089 -7 -5 -8 1 -260 23 -938 24 -767 60 -1945 60 -1997 l0 -58 286 0 285 0
-6 103 c-3 56 -19 476 -35 932 -16 457 -31 867 -34 913 l-5 82 829 0 829 0 5
-52 c6 -54 186 -2975 186 -3015 l0 -23 -2024 0 -2023 0 -7 633 c-3 347 -9
1472 -12 2500 l-7 1867 1881 0 1882 0 4 -22z m4658 -2458 c174 -1361 317
-2485 317 -2497 l1 -23 -2024 0 -2025 0 -5 52 c-7 62 -346 4892 -346 4926 l0
22 1883 -2 1882 -3 317 -2475z m4502 7 c264 -1359 482 -2484 484 -2500 l4 -27
-2025 0 -2026 0 -6 32 c-4 27 -649 4748 -671 4916 l-7 52 1884 0 1884 0 479
-2473z m3332 2446 c4 -16 30 -118 59 -228 l51 -200 270 -3 269 -2 520 -2003
521 -2002 -283 -3 c-156 -1 -283 -5 -283 -7 0 -6 118 -480 126 -507 5 -17 -82
-18 -1734 -18 l-1740 0 -16 73 c-24 109 -996 4910 -996 4919 0 5 727 8 1615 8
l1615 0 6 -27z"/>
    <path d="M17580 6218 c0 -35 -7 -225 -15 -423 -8 -198 -15 -388 -15 -422 l0
-63 273 0 274 0 6 218 c4 119 10 337 14 485 l6 267 -271 0 -272 0 0 -62z"/>
    <path d="M26400 6267 c0 -7 63 -676 140 -1486 77 -809 140 -1478 140 -1486 0
-13 42 -15 286 -15 l285 0 -6 43 c-4 34 -305 2942 -305 2953 0 2 -121 4 -270
4 -216 0 -270 -3 -270 -13z"/>
    <path d="M30804 6253 c3 -16 35 -212 71 -438 36 -225 68 -417 72 -425 3 -8 5
-20 4 -27 -1 -6 73 -472 164 -1036 91 -563 165 -1029 165 -1035 0 -9 76 -12
286 -12 l286 0 -6 28 c-3 15 -116 680 -251 1477 -135 798 -247 1460 -250 1473
l-5 22 -271 0 -271 0 6 -27z"/>
    <path d="M35217 6213 c8 -38 42 -183 74 -323 33 -140 62 -266 65 -280 2 -14
122 -544 266 -1177 l262 -1153 284 0 c223 0 283 3 280 13 -2 6 -161 681 -354
1499 l-349 1488 -272 0 -271 0 15 -67z"/>
  </g>
</svg>